<svg xmlns="http://www.w3.org/2000/svg" height="800" width="1200" viewBox="-8.660475 -1.95406 75.05745 11.72436"><path d="M5.2586 5.46392c-.29904.31144-.92743.80891-2.147.80891C1.3684 6.27283 0 5.11528 0 3.20533c0-1.91686 1.3808-3.062 3.11712-3.062 1.21957 0 1.88516.51124 2.04087.67247l-.42856 1.15066c-.113-.14882-.7469-.62149-1.531-.62149-1.00873 0-1.77905.6711-1.77905 1.83555 0 1.16306.8089 1.82314 1.77904 1.82314.74001 0 1.27607-.29214 1.59853-.62838zm4.75285.70281h-1.3863v-2.2269c0-.51678-.0689-.96464-.64768-.96464-.57878 0-.7593.47956-.7593 1.10794v2.0836H5.8429V.23014h1.37528V1.644c0 .42857-.007.89573-.007.89573.21911-.38034.62288-.6904 1.25126-.6904 1.23197 0 1.54892.78273 1.54892 1.81626zm5.01606-1.79145h-3.0179c.062.6091.52228.89021 1.08314.89021.55397 0 1.03215-.2439 1.27468-.40514l.54157.7152c-.13642.10611-.69729.69177-2.01607.69177-1.30638 0-2.26412-.8089-2.26412-2.21588 0-1.4056 1.03216-2.2021 2.28893-2.2021 1.25677 0 2.12907.83371 2.12907 2.07118 0 .20533-.0193.45476-.0193.45476zm-1.26366-.7786c-.005-.38585-.29214-.85162-.87092-.85162-.56637 0-.8585.44786-.8778.85162zm5.72575 2.57005h-1.32016l-.0248-.44787c-.18052.18053-.52228.54157-1.21267.54157-.7469 0-1.5434-.40376-1.5434-1.35048 0-.94533.87091-1.26228 1.65502-1.30086l1.07073-.0427v-.0937c0-.44786-.31832-.67799-.87092-.67799-.54157 0-1.08314.24253-1.30087.37896l-.36104-.89573c.36104-.18052 1.02664-.42857 1.81625-.42857.791 0 1.25126.17915 1.5875.49058.32935.31144.50988.7221.50988 1.4373v2.38952zm-1.36977-1.86587l-.67799.0427c-.42306.0193-.67249.19982-.67249.51677 0 .32935.26872.52227.64768.52227.37345 0 .62288-.24253.7028-.38585zm4.80384 1.96646c-.62838 0-1.07624-.2315-1.34359-.62976v2.09186H20.2048V1.92375h1.30638l-.006.54157h.0179c.31144-.37345.7662-.62288 1.4125-.62288 1.21955 0 1.99815.95774 1.99815 2.2035-.007 1.25676-.7786 2.22138-2.01056 2.22138zm-.39825-3.33623c-.58429 0-.98943.44786-.98943 1.10105 0 .65457.40514 1.10244.98943 1.10244.59118 0 1.00183-.44787 1.00183-1.10244 0-.65319-.40376-1.10105-1.00183-1.10105zm5.63204-1.74873s-.23013-.0744-.49196-.0744c-.40376 0-.50987.23013-.50987.55397v.27423h.91502V2.9752h-.91502v3.19154h-1.38769V2.9752h-.54157V1.93616h.54157v-.24943c0-.42857.0868-.8337.33624-1.11345.26045-.28663.6656-.45475 1.21268-.45475.50987 0 .90262.11162.90262.11162zm.69729-.95222h1.3739v5.94348h-1.3739zm2.86769 1.20164c-.46578 0-.7841-.28663-.7841-.7152 0-.42305.31832-.71658.7841-.71658.46715 0 .7841.29353.7841.71658 0 .43546-.31695.7152-.7841.7152zm-.68488.49197h1.37528v4.24298h-1.37528zm6.70278 3.38446c0 .91502-.23013 1.44418-.64768 1.83554-.41617.39274-.98254.6725-1.95406.6725-.98254 0-1.76664-.41067-2.05879-.6284l.565-.92053c.24942.18604.8971.47818 1.46348.47818.56637 0 .85162-.18052 1.00183-.33624.14883-.16123.26045-.46578.26045-.84612v-.13642h-.0179c-.26183.33624-.67249.60358-1.33256.60358-1.03904 0-2.00367-.72209-2.00367-2.09048 0-1.36977.96463-2.09049 2.00367-2.09049.71658 0 1.12034.32935 1.34496.6215h.0179l-.0179-.54157h1.37528zm-2.32199-2.38263c-.6091 0-1.00184.44786-1.00184 1.02664 0 .5843.38585 1.03215 1.00184 1.03215.61046 0 .98943-.44786.98943-1.03215 0-.57878-.37897-1.02664-.98943-1.02664zm7.29395 3.24115h-1.38768v-2.2269c0-.51678-.0689-.96464-.64768-.96464-.57878 0-.7593.47956-.7593 1.10794v2.0836h-1.37528V.23014h1.37528V1.644c0 .42857-.005.89573-.005.89573.21772-.38034.6215-.6904 1.24988-.6904 1.23196 0 1.5503.78273 1.5503 1.81626zm3.40375-3.19153h-.93982v1.5241c0 .36105.0496.44786.11852.52228.062.0689.14882.10611.32934.10611.21774 0 .41066-.0744.41066-.0744l.0689 1.07625c-.1061.0248-.47956.1378-.9839.1378-.49198 0-.81444-.1502-1.03217-.39825-.21773-.24943-.29903-.60358-.29903-1.25126V2.97521h-.60358V1.93617h.60358V.77862h1.38768v1.15066h.93982zm3.44648 2.91867c-.31144.24254-.7345.37345-1.30087.37345-.6339 0-1.30638-.1998-1.79145-.65457l.51676-.8144c.34176.29213.91502.51675 1.25678.51675.34175 0 .58428-.0882.58428-.36105 0-.27423-.62149-.41065-.7772-.46715-.16124-.0427-.40515-.11162-.60359-.19844-.1998-.0882-.7152-.35553-.7152-1.11483 0-.82683.72071-1.33119 1.61092-1.33119.89022 0 1.3877.32935 1.63023.52228l-.44787.80891c-.24253-.18604-.72209-.41066-1.07073-.41066-.32935 0-.50988.0882-.50988.31144 0 .22462.33073.32935.62287.41065.29215.0868.42306.13092.6036.19982.18602.0675.40375.18052.55396.31695.13642.13642.34175.41065.34175.85852-.007.44235-.19292.7841-.50436 1.03352zm0 0" fill="#2b303d"/><path d="M57.48486 2.8181c-.33624-.12403-.69178-.18742-1.05282-.18053l-.90813.007L53.66907.37218c-.0427-.0496-.0992-.0799-.16674-.0799h-.33624c-.0937 0-.1626.0992-.1254.18603l.8406 2.1842-1.34359.0813-.44786-.616c-.0565-.0813-.1433-.1254-.23702-.1254h-.24943c-.0799 0-.13642.0882-.11162.16812l.32384 1.04593-.31144 1.05145c-.0248.0813.0317.16812.11163.16812h.25493c.0937 0 .18052-.0496.23703-.12403l.43545-.62287 1.34497.0868-.8034 2.19108c-.0317.0868.0317.18603.13092.18603h.32935c.0689 0 .12402-.0303.16812-.0799l1.81763-2.3027.90813-.007c.35415 0 .7028-.0675 1.03215-.19293.1378-.0496.24391-.17363.26183-.32246.0248-.19982-.0813-.36105-.24805-.42995" fill="#ffd400"/></svg>