<svg xmlns="http://www.w3.org/2000/svg" xmlns:xlink="http://www.w3.org/1999/xlink" height="800" width="1200" version="1.0" viewBox="-14.2119 -3.904 123.1698 23.424"><path d="M1.013 13.214H0v-.245h2.292v.245H1.281v2.336h-.268m1.955-2.581h.268v1.093h1.866v-1.093h.267v2.581h-.267v-1.244H3.236v1.244h-.268m3.366-2.581h2.054v.245H6.601v.876h1.721v.245H6.601v.969h1.815v.246H6.334m7.656-2.581h.289l-.868 2.581H13.1l-.777-2.205h-.007l-.767 2.205h-.31l-.856-2.581h.299l.716 2.227h.008l.762-2.227h.33l.762 2.227h.007m3.329-.431h-1.36l-.35.785h-.289l1.171-2.581h.311l1.171 2.581h-.31m-1.02-2.312l-.575 1.282h1.144zm2.727 1.227l-1.161-1.496h.347l.948 1.23.946-1.23h.348l-1.161 1.496v1.085h-.267m4.272-2.336h-1.012v-.245h2.291v.245h-1.012v2.336h-.267m1.956-2.581h.268v1.093h1.865v-1.093h.266v2.581h-.266v-1.244h-1.865v1.244h-.268m3.365-2.581h2.053v.245h-1.785v.876h1.72v.245h-1.72v.969h1.815v.246H28.24m4.371-2.581h2.053v.245h-1.786v.876h1.721v.245h-1.721v.969h1.815v.246h-2.082m4.615-.785h-1.359l-.35.785h-.29l1.171-2.581h.311l1.171 2.581h-.31m-1.019-2.312l-.575 1.282h1.143zm2.034-.269h1.406c.438 0 .839.155.839.698 0 .274-.169.549-.505.625v.008c.365.058.44.292.459.715.007.163.029.477.09.535h-.289c-.046-.055-.066-.246-.069-.527-.008-.457-.181-.607-.625-.607h-1.038v1.135h-.268m.268-1.382h1.131c.293 0 .558-.108.558-.502 0-.38-.287-.453-.531-.453h-1.158zm3.579-.955h-1.013v-.245h2.292v.245h-1.012v2.336h-.267m1.955-2.581h.267v1.093h1.867v-1.093h.267v2.581h-.267v-1.244h-1.867v1.244h-.267m7.331-.984c-.057.579-.535 1.05-1.275 1.05-.838 0-1.374-.528-1.374-1.355 0-.59.365-1.356 1.374-1.356.563 0 1.175.257 1.254.937h-.268c-.079-.491-.521-.69-.986-.69-.639 0-1.085.357-1.085 1.11 0 .575.3 1.108 1.085 1.108.614 0 .918-.311 1.009-.803m2.399-1.663c.734 0 1.402.445 1.402 1.356 0 .91-.668 1.355-1.402 1.355-.732 0-1.401-.445-1.401-1.355-.001-.911.668-1.356 1.401-1.356m0 2.465c.568 0 1.113-.332 1.113-1.108s-.545-1.11-1.113-1.11c-.567 0-1.113.334-1.113 1.11s.545 1.108 1.113 1.108m2.223-2.4h.322l1.803 2.205h.007v-2.205h.269v2.581h-.311l-1.815-2.205h-.008v2.205h-.267m3.322-2.581h.322l1.803 2.205h.007v-2.205h.267v2.581h-.31l-1.815-2.205h-.007v2.205h-.267m3.365-2.581h2.053v.245h-1.786v.876h1.72v.245h-1.72v.969h1.815v.246h-2.082m5.437-.984c-.059.579-.535 1.05-1.277 1.05-.837 0-1.373-.528-1.373-1.355 0-.59.364-1.356 1.373-1.356.565 0 1.176.257 1.256.937h-.269c-.08-.491-.52-.69-.987-.69-.64 0-1.084.357-1.084 1.11 0 .575.301 1.108 1.084 1.108.616 0 .919-.311 1.01-.803m1.864-1.353h-1.012v-.245h2.292v.245h-1.012v2.336h-.268m3.706-1.844c-.036-.441-.395-.557-.811-.557-.416 0-.729.162-.729.455 0 .336.313.415.943.521.47.078.94.188.94.683 0 .632-.575.807-1.078.807-.654 0-1.131-.225-1.171-.919h.268c.046.542.408.672.903.672.387 0 .788-.104.788-.513 0-.394-.47-.441-.939-.518-.615-.097-.943-.271-.943-.687 0-.563.521-.748 1.019-.748.528 0 1.06.188 1.077.803"/><path d="M82.361 4.337c.578-.805 1.227-1.581 1.935-2.316a21.141 21.141 0 012.253-2.02l-.843 3.375" fill="#cdd0d3"/><path d="M88.21 5.795a21.053 21.053 0 01-2.972-.519c-.995-.248-1.957-.563-2.879-.939l3.347-.961" fill="#5b5b63"/><path d="M86.548 0c.406.904.755 1.852 1.038 2.833.282.985.488 1.975.624 2.962l-2.504-2.419m-4.526 7.902a20.9169 20.9169 0 01-1.604-2.557c-.482-.905-.891-1.83-1.228-2.767l2.953 1.845" fill="#92959b"/><path d="M84.373 6.167c-.4.907-.869 1.796-1.411 2.666-.542.87-1.141 1.686-1.782 2.446l.122-3.479" fill="#5b5b63"/><path d="M78.349 5.954c.988-.105 1.994-.144 3.017-.109 1.022.036 2.029.144 3.008.322l-3.071 1.632" fill="#cdd0d3"/><path d="M87.415 14.547c-.942.309-1.918.559-2.926.736a21.565 21.565 0 01-3.011.311l2.667-2.237" fill="#5b5b63"/><path d="M83.54 9.929c.742.661 1.444 1.384 2.101 2.167.658.784 1.25 1.604 1.774 2.451l-3.27-1.19" fill="#92959b"/><path d="M81.479 15.592c.202-.973.477-1.94.827-2.9.35-.964.763-1.886 1.235-2.765l.604 3.43" fill="#cdd0d3"/><path d="M92.451 9.627c.005.991-.063 1.997-.204 3.008-.145 1.015-.356 2.004-.634 2.96l-1.305-3.227" fill="#92959b"/><path d="M86.863 11.882c.858-.499 1.76-.943 2.707-1.327a21.107 21.107 0 012.881-.928l-2.142 2.741" fill="#cdd0d3"/><path d="M91.613 15.594a20.9029 20.9029 0 01-2.507-1.682 21.17 21.17 0 01-2.244-2.03l3.446.486" fill="#5b5b63"/><path d="M89.327 3.314c.944.305 1.882.679 2.801 1.127.92.447 1.796.956 2.618 1.517l-3.473.242" fill="#92959b"/><path d="M89.747 9.329c-.208-.971-.354-1.967-.425-2.987-.071-1.024-.068-2.034.005-3.028L91.273 6.2" fill="#cdd0d3"/><path d="M94.744 5.958a20.758 20.758 0 01-2.371 1.861c-.853.574-1.729 1.076-2.626 1.51L91.273 6.2" fill="#5b5b63"/><g transform="translate(-.25 -.192)"><defs><path id="a" d="M.25.192h99.5v15.615H.25z"/></defs><clipPath id="b"><use height="16" width="100" overflow="visible" xlink:href="#a"/></clipPath><path d="M.25 9.784c-.001.552.161.959.486 1.284.431.434 1.198.652 2.157.652.539 0 2.382-.119 2.382-1.649 0-1.347-1.229-1.47-2.312-1.581-1.119-.113-1.946-.236-1.946-.994 0-.376.196-.65.593-.833.411-.19.855-.218 1.315-.218.354 0 1.003.056 1.369.421.17.171.257.441.257.706l.563.008c0-.411-.131-.824-.389-1.083-.471-.471-1.265-.57-1.846-.57-.8 0-1.587.173-2.073.656-.253.254-.38.561-.38.913 0 1.317 1.341 1.425 2.394 1.519.499.046.969.087 1.319.242.369.159.542.428.542.84 0 .263-.087.481-.26.653-.408.408-1.255.453-1.565.453-.76 0-1.371-.165-1.695-.488-.233-.233-.354-.523-.356-.933m5.368-3.751v.546h2.163v5.04h.573v-5.04h2.165v-.546zm7.626 0l-2.568 5.586h.631s.734-1.596.794-1.727h2.813c.06.131.785 1.727.785 1.727h.644l-2.567-5.586zm.261.774c.178.385 1.042 2.27 1.17 2.551H12.9c.126-.282.985-2.166 1.16-2.551m4.451-.774v5.586h.581V9.189h2.263c.996 0 1.23.197 1.256 1.065.021.909.062 1.206.182 1.326l.036.036h.601l-.096-.181c-.089-.174-.124-.518-.132-1.423-.011-.552-.312-.952-.793-1.13.627-.28.883-.847.883-1.313 0-1.035-.63-1.538-1.929-1.538zm2.88.546c.881 0 1.311.318 1.311.973 0 .735-.458 1.094-1.394 1.094h-2.216V6.577zm8.53-.546l-2.567 5.586h.64s.725-1.596.784-1.727h2.813c.06.131.793 1.727.793 1.727h.634L30.46 6.031zm.27.774c.175.385 1.033 2.27 1.16 2.551h-2.328c.128-.282.992-2.166 1.168-2.551m20.059-.774l-2.569 5.586h.64s.726-1.596.786-1.727h2.813c.059.131.794 1.727.794 1.727h.635l-2.56-5.586zm.268.774c.175.385 1.035 2.27 1.161 2.551h-2.328c.128-.282.992-2.166 1.167-2.551m-15.696-.774v5.586h4.025v-.547h-3.443V6.031zm5.269 0v5.586h4.017v-.547h-3.435V6.031zm5.223 5.586h.574V6.031h-.574zM59.55 6.031v4.66c-.359-.435-4.044-4.66-4.044-4.66h-.583v5.586h.574V6.956c.358.434 4.044 4.662 4.044 4.662h.579V6.031zm10.054 0v5.586h4.505v-.547h-3.928V8.996h3.729v-.537h-3.729V6.577h3.882v-.546zm-7.671 2.8c0 1.766 1.228 2.903 3.028 2.903 1.677 0 2.693-1.132 2.827-2.252l.018-.138H67.2l-.019.101c-.193 1.077-1.045 1.744-2.221 1.744-1.736 0-2.429-1.221-2.429-2.362 0-1.395 1.007-2.369 2.451-2.369 1.099 0 1.888.525 2.116 1.405l.021.093h.606l-.035-.149c-.274-1.205-1.263-1.895-2.709-1.895-2.052.001-3.048 1.514-3.048 2.919" clip-path="url(#b)"/></g></svg>