<?xml version="1.0" standalone="no"?>
<!DOCTYPE svg PUBLIC "-//W3C//DTD SVG 20010904//EN"
 "http://www.w3.org/TR/2001/REC-SVG-20010904/DTD/svg10.dtd">
<svg version="1.0" xmlns="http://www.w3.org/2000/svg"
 width="500.000000pt" height="500.000000pt" viewBox="0 0 500.000000 500.000000"
 preserveAspectRatio="xMidYMid meet">

<g transform="translate(0.000000,500.000000) scale(0.100000,-0.100000)"
fill="#000000" stroke="none">
<path d="M2460 3720 c0 -66 17 -83 22 -22 l3 37 20 -37 c10 -21 22 -38 26 -38
9 0 17 101 10 115 -3 6 -8 -8 -11 -30 l-6 -40 -19 38 c-29 57 -45 48 -45 -23z"/>
<path d="M2336 3728 c9 -67 11 -70 46 -66 28 3 34 7 36 32 4 35 -5 76 -17 76
-5 0 -9 -21 -8 -47 2 -37 -2 -48 -13 -48 -9 0 -16 11 -18 25 -5 47 -12 70 -22
70 -6 0 -8 -17 -4 -42z"/>
<path d="M2596 3758 c-3 -7 -7 -32 -9 -55 -5 -43 -5 -43 27 -43 41 0 56 16 56
57 0 22 -6 36 -19 43 -26 14 -51 13 -55 -2z m52 -36 c4 -23 -13 -52 -29 -52
-5 0 -9 18 -9 41 0 33 3 40 18 37 9 -2 18 -14 20 -26z"/>
<path d="M2220 3735 c-16 -20 -4 -82 18 -94 10 -5 27 -5 40 0 24 9 29 40 12
83 -11 30 -50 36 -70 11z m56 -30 c7 -29 0 -55 -16 -55 -13 0 -32 49 -26 67 9
22 35 15 42 -12z"/>
<path d="M2780 3725 c9 -11 10 -25 2 -55 -6 -23 -6 -42 -1 -46 5 -3 14 15 21
40 7 26 18 46 25 46 22 0 15 17 -9 24 -41 11 -52 8 -38 -9z"/>
<path d="M2113 3710 c-27 -11 -27 -6 -7 -63 15 -45 42 -68 31 -27 -6 24 5 26
23 5 7 -8 17 -12 22 -9 6 4 6 10 -1 17 -6 6 -11 23 -11 37 0 24 -16 51 -29 49
-4 0 -16 -4 -28 -9z m32 -30 c0 -7 -6 -15 -12 -17 -8 -3 -13 4 -13 17 0 13 5
20 13 18 6 -3 12 -11 12 -18z"/>
<path d="M2876 3677 c-23 -57 -28 -77 -17 -77 5 0 13 9 16 20 6 19 25 26 38
14 3 -3 2 -17 -3 -30 -6 -16 -6 -24 1 -24 15 0 51 92 40 103 -5 5 -12 1 -16
-12 -6 -20 -25 -28 -38 -15 -3 4 -2 15 3 25 7 11 7 20 0 24 -5 3 -16 -9 -24
-28z"/>
<path d="M1997 3662 c-8 -11 15 -112 24 -112 5 0 9 6 9 14 0 21 19 30 35 16
27 -23 23 7 -8 48 -31 39 -50 51 -60 34z m43 -53 c0 -5 -4 -9 -10 -9 -5 0 -10
7 -10 16 0 8 5 12 10 9 6 -3 10 -10 10 -16z"/>
<path d="M2982 3615 c-28 -57 -28 -59 4 -74 30 -13 48 -5 21 10 -29 17 -21 40
11 34 25 -6 25 -5 10 8 -31 25 -21 48 12 28 28 -18 32 2 3 20 -15 10 -30 19
-34 19 -3 0 -15 -20 -27 -45z"/>
<path d="M1836 3572 c-3 -4 9 -29 26 -55 29 -45 30 -46 54 -30 29 18 32 38 4
23 -17 -9 -23 -5 -46 30 -29 43 -30 44 -38 32z"/>
<path d="M3125 3521 c-27 -55 -18 -77 18 -44 42 38 49 36 28 -5 -13 -25 -17
-43 -11 -47 13 -8 101 65 93 77 -3 5 -15 1 -27 -10 -37 -33 -52 -38 -33 -11
20 27 22 59 5 59 -6 0 -22 -10 -35 -22 -26 -24 -30 -14 -8 16 17 23 19 36 5
36 -5 0 -21 -22 -35 -49z"/>
<path d="M1766 3517 l-28 -22 39 -43 38 -42 25 19 c14 11 22 23 18 27 -4 4
-14 1 -22 -5 -23 -19 -41 -3 -22 18 18 20 10 36 -10 20 -22 -18 -38 0 -18 22
25 28 13 32 -20 6z"/>
<path d="M1690 3456 c0 -2 10 -22 22 -43 l23 -38 -39 23 c-44 26 -63 20 -26
-8 34 -26 79 -44 88 -36 8 9 -40 98 -56 104 -7 2 -12 1 -12 -2z"/>
<path d="M3256 3429 c-29 -23 -34 -60 -11 -79 20 -17 58 -1 81 35 16 24 16 27
-1 45 -23 25 -36 25 -69 -1z m59 -10 c7 -11 -31 -59 -47 -59 -18 0 -20 32 -3
50 20 22 40 26 50 9z"/>
<path d="M3343 3337 c-48 -37 -54 -52 -17 -43 23 6 24 5 14 -15 -15 -26 -3
-40 14 -16 7 9 20 17 28 17 17 0 38 19 38 35 0 5 -8 20 -18 32 l-17 22 -42
-32z m47 -31 c-7 -7 -14 -6 -22 2 -10 10 -10 15 2 22 17 11 34 -10 20 -24z"/>
<path d="M1587 3337 c-5 -14 51 -96 66 -97 5 0 7 10 5 23 -2 16 3 23 20 25 35
5 26 18 -27 41 -59 25 -57 25 -64 8z m57 -38 c-6 -11 -24 -2 -24 11 0 5 7 7
15 4 8 -4 12 -10 9 -15z"/>
<path d="M3408 3239 c-47 -30 -47 -31 -32 -55 19 -29 39 -33 24 -4 -9 17 -5
23 30 46 22 15 37 30 34 35 -3 5 -6 9 -7 8 -1 0 -23 -14 -49 -30z"/>
<path d="M1515 3234 c-9 -14 -15 -27 -13 -29 23 -19 91 -55 96 -50 4 4 -1 13
-11 20 -20 14 -8 29 16 19 8 -3 18 -1 22 5 3 6 2 11 -4 11 -5 0 -22 11 -37 25
-34 32 -47 31 -69 -1z m51 -5 c10 -17 -13 -36 -27 -22 -12 12 -4 33 11 33 5 0
12 -5 16 -11z"/>
<path d="M3468 3154 c-52 -26 -58 -42 -30 -67 25 -23 46 -21 77 6 25 21 26 24
13 54 l-13 31 -47 -24z m33 -45 c-25 -20 -52 -22 -58 -3 -5 15 60 44 72 32 7
-6 2 -16 -14 -29z"/>
<path d="M1457 3135 c-9 -19 -12 -37 -8 -40 5 -3 11 1 14 7 3 10 13 9 41 -4
41 -20 56 -22 56 -10 0 5 -18 17 -40 27 -25 11 -39 23 -36 31 12 30 -12 20
-27 -11z"/>
<path d="M2050 3115 c0 -34 1 -35 40 -35 l40 0 0 -140 0 -140 45 0 45 0 0 140
0 140 35 0 c33 0 35 2 35 35 l0 35 -120 0 -120 0 0 -35z"/>
<path d="M2370 2975 l0 -175 45 0 45 0 0 76 0 75 43 -3 42 -3 3 -72 3 -73 39
0 40 0 0 175 0 175 -40 0 -40 0 0 -65 0 -65 -45 0 -45 0 0 65 0 65 -45 0 -45
0 0 -175z"/>
<path d="M2720 2975 l0 -175 110 0 110 0 0 35 0 34 -67 3 -68 3 0 35 0 35 58
3 57 3 0 34 0 35 -60 0 -60 0 0 30 0 30 70 0 70 0 0 35 0 35 -110 0 -110 0 0
-175z"/>
<path d="M3695 2780 c-49 -66 -96 -122 -105 -124 -8 -2 -37 -7 -65 -11 -99
-12 -215 -38 -215 -47 0 -6 7 -8 15 -4 8 3 57 12 108 21 50 8 107 18 125 21
l33 5 -52 -78 c-29 -43 -57 -81 -63 -85 -6 -4 -51 -24 -100 -43 -65 -27 -91
-33 -101 -25 -12 10 -33 8 -87 -7 -44 -11 -4 48 50 76 21 11 22 11 17 -16 -6
-27 -6 -27 9 -8 9 10 15 24 13 30 -8 25 -47 13 -110 -35 -116 -88 -238 -134
-253 -96 -10 26 15 56 45 56 31 0 57 22 46 40 -11 18 -40 11 -77 -20 -47 -39
-114 -68 -172 -76 -62 -9 -56 3 49 99 116 107 253 292 231 314 -3 3 -16 3 -29
-1 -29 -7 -104 -97 -211 -254 -67 -96 -82 -113 -114 -122 -57 -15 -72 -12
-102 20 -52 56 -147 35 -171 -37 -9 -29 -22 -40 -73 -64 -67 -32 -123 -38
-132 -14 -7 17 29 71 58 86 19 10 20 9 14 -17 -6 -27 -5 -28 9 -10 38 49 -4
63 -60 20 -48 -36 -106 -43 -141 -15 -19 15 -41 21 -74 21 -42 0 -52 -4 -74
-31 -14 -17 -26 -39 -26 -50 0 -12 -17 -30 -47 -49 -37 -24 -58 -30 -101 -30
-60 0 -142 18 -142 31 0 5 4 9 9 9 5 0 42 34 82 75 41 42 98 90 127 106 101
59 187 167 151 190 -24 14 -69 -22 -143 -115 -71 -89 -77 -94 -133 -109 -33
-10 -87 -17 -121 -17 -35 0 -62 -4 -62 -10 0 -14 73 -12 150 4 36 8 66 13 68
11 7 -7 -141 -135 -157 -135 -10 0 -38 7 -61 15 -62 22 -127 20 -140 -4 -12
-24 -4 -48 21 -61 28 -16 100 -11 144 8 38 17 42 17 105 0 86 -25 156 -20 209
15 23 15 41 22 41 16 0 -6 14 -24 31 -40 17 -16 25 -29 18 -29 -25 1 -514 -41
-535 -45 -19 -4 -21 -10 -16 -52 2 -27 6 -50 8 -52 2 -2 231 16 509 40 l505
44 0 52 c0 44 -3 53 -17 53 -22 0 -217 -17 -292 -26 l-54 -6 22 27 c13 17 21
42 21 65 0 31 4 39 23 44 46 12 57 8 57 -24 0 -23 5 -31 24 -36 27 -7 96 10
148 37 45 23 48 23 48 4 0 -9 11 -27 25 -40 52 -53 152 -23 171 49 4 19 13 26
29 26 13 0 27 -4 30 -10 3 -5 -23 -59 -59 -119 -83 -140 -149 -271 -137 -271
6 0 19 20 30 45 11 24 59 112 107 194 l87 150 68 11 c37 6 84 20 103 30 l36
18 0 -24 c0 -13 9 -28 21 -34 26 -14 98 7 176 51 36 21 54 26 59 18 4 -7 24
-9 58 -5 56 6 57 8 -31 -47 -33 -20 -44 -33 -40 -46 4 -16 -9 -19 -142 -30
-250 -21 -241 -19 -241 -55 0 -17 3 -40 6 -51 5 -21 5 -21 207 -3 111 9 203
17 205 18 2 0 0 24 -3 53 -7 51 -6 54 22 71 15 10 39 31 53 46 21 25 197 107
206 97 2 -2 -12 -26 -31 -54 -64 -96 -186 -315 -183 -330 2 -9 23 22 47 68 87
167 310 505 339 513 9 3 78 10 152 16 74 7 137 14 139 16 8 7 -113 4 -198 -6
-47 -5 -86 -8 -88 -6 -2 1 35 54 82 116 47 62 85 115 85 117 0 17 -30 -16
-105 -117z m-710 -87 c-48 -74 -171 -219 -191 -227 -8 -3 13 35 48 85 66 96
167 213 176 205 3 -3 -12 -32 -33 -63z m-1005 -84 c0 -25 -43 -80 -88 -112
-65 -47 -77 -53 -67 -36 17 29 117 148 128 153 20 8 27 6 27 -5z m1000 -179
c-24 -15 -37 -11 -16 5 11 8 22 12 25 9 3 -3 -1 -9 -9 -14z m-462 -40 c2 -21
-2 -30 -12 -30 -11 0 -15 9 -13 30 3 39 22 39 25 0z m182 -25 c-13 -16 -47
-20 -77 -7 -13 5 -6 9 27 13 25 3 49 7 54 7 5 1 3 -5 -4 -13z m-236 -1 c9 -3
16 -16 16 -28 0 -17 6 -22 25 -22 20 0 25 5 25 26 0 20 5 26 25 28 30 2 33
-14 5 -23 -22 -7 -27 -34 -9 -52 7 -7 7 -13 1 -17 -5 -3 -15 1 -22 9 -7 8 -18
15 -25 15 -7 0 -18 -7 -25 -15 -7 -8 -17 -12 -22 -9 -6 4 -6 10 1 17 18 18 13
48 -9 54 -11 3 -20 9 -20 14 0 10 12 11 34 3z m-442 -29 c4 -19 1 -25 -13 -25
-14 0 -19 -7 -19 -25 0 -21 5 -25 28 -25 16 0 32 -8 40 -20 16 -26 -3 -27 -31
-3 -18 17 -20 17 -37 -5 -19 -24 -35 -17 -19 8 15 25 10 40 -18 52 l-28 11 35
6 c27 5 36 11 38 29 4 30 19 28 24 -3z m1188 -1 c-17 -19 -50 -37 -50 -27 0 7
48 42 59 43 2 0 -2 -7 -9 -16z m-1140 -44 c-31 -24 -42 -25 -38 -3 2 9 14 20
28 23 35 9 39 2 10 -20z m-545 -30 c48 -17 49 -18 25 -28 -75 -29 -150 -21
-150 18 0 34 49 38 125 10z"/>
<path d="M3517 2314 c-4 -4 -7 -29 -7 -56 l0 -48 39 0 c21 0 53 3 70 6 31 6
32 8 29 53 l-3 46 -60 3 c-34 2 -64 0 -68 -4z"/>
<path d="M2418 1623 c45 -2 119 -2 165 0 45 1 8 3 -83 3 -91 0 -128 -2 -82 -3z"/>
<path d="M1080 1443 c0 -4 5 -15 10 -23 8 -13 10 -13 10 2 0 9 -4 20 -10 23
-5 3 -10 3 -10 -2z"/>
<path d="M1217 1444 c-4 -4 -7 -14 -7 -23 0 -14 2 -14 10 -1 8 12 10 12 11 -5
0 -11 3 -15 5 -8 7 15 -10 46 -19 37z"/>
<path d="M1372 1407 c-1 -32 -6 -46 -13 -41 -6 3 -5 -4 3 -17 l13 -24 3 33 c2
17 1 47 -1 65 -3 24 -4 20 -5 -16z"/>
<path d="M1438 1443 c7 -3 16 -2 19 1 4 3 -2 6 -13 5 -11 0 -14 -3 -6 -6z"/>
<path d="M1563 1443 c9 -2 23 -2 30 0 6 3 -1 5 -18 5 -16 0 -22 -2 -12 -5z"/>
<path d="M1651 1388 c1 -35 4 -51 6 -35 2 15 10 27 18 27 7 0 18 -12 23 -27
10 -27 10 -27 8 8 -1 31 -4 35 -23 31 -19 -4 -23 0 -23 21 0 16 7 27 18 30 13
4 11 5 -5 6 -22 1 -23 -3 -22 -61z"/>
<path d="M1934 1436 c-3 -7 -3 -35 -1 -62 l3 -49 2 57 c2 54 3 57 30 61 l27 4
-28 2 c-15 0 -30 -5 -33 -13z"/>
<path d="M2039 1441 c12 -8 51 -4 51 5 0 2 -15 4 -32 4 -23 0 -29 -3 -19 -9z"/>
<path d="M2137 1443 c-4 -3 -7 -30 -7 -60 l0 -53 33 1 c30 2 30 2 5 6 -26 4
-28 8 -28 53 0 45 2 49 28 53 l27 4 -26 2 c-14 0 -29 -2 -32 -6z"/>
<path d="M2240 1435 c0 -8 4 -15 10 -15 5 0 7 7 4 15 -4 8 -8 15 -10 15 -2 0
-4 -7 -4 -15z"/>
<path d="M2517 1443 c-4 -3 -7 -13 -7 -22 1 -13 3 -13 11 2 11 19 8 33 -4 20z"/>
<path d="M2812 1407 c-1 -32 -6 -46 -13 -41 -6 3 -5 -4 3 -17 l13 -24 3 33 c2
17 1 47 -1 65 -3 24 -4 20 -5 -16z"/>
<path d="M2870 1390 c0 -56 2 -60 23 -60 13 0 28 5 35 12 21 21 13 98 -10 98
-6 0 -6 -6 1 -14 7 -8 11 -30 9 -48 -2 -25 -8 -34 -25 -36 -21 -3 -23 0 -23
46 0 31 5 52 13 55 7 3 5 6 -5 6 -15 1 -18 -8 -18 -59z"/>
<path d="M3003 1443 c9 -2 23 -2 30 0 6 3 -1 5 -18 5 -16 0 -22 -2 -12 -5z"/>
<path d="M3091 1388 c1 -35 4 -51 6 -35 2 15 10 27 18 27 7 0 18 -12 23 -27
10 -27 10 -27 8 8 -1 31 -4 35 -23 31 -19 -4 -23 0 -23 21 0 16 7 27 18 30 13
4 11 5 -5 6 -22 1 -23 -3 -22 -61z"/>
<path d="M3280 1441 c0 -5 5 -13 10 -16 6 -3 10 -2 10 4 0 5 -4 13 -10 16 -5
3 -10 2 -10 -4z"/>
<path d="M3372 1393 l-2 -63 33 1 c29 2 30 2 5 6 -25 4 -27 8 -31 61 l-3 57
-2 -62z"/>
<path d="M3461 1434 c0 -11 3 -14 6 -6 3 7 2 16 -1 19 -3 4 -6 -2 -5 -13z"/>
<path d="M3571 1434 c0 -11 3 -14 6 -6 3 7 2 16 -1 19 -3 4 -6 -2 -5 -13z"/>
<path d="M3634 1395 c-9 -31 -13 -59 -10 -62 3 -4 6 1 6 10 0 20 46 24 53 5 4
-9 5 -8 6 2 0 8 -4 24 -9 35 -7 17 -9 17 -9 3 -1 -10 -8 -18 -16 -18 -17 0
-18 4 -8 38 4 18 8 20 14 10 7 -10 9 -9 9 4 0 40 -21 24 -36 -27z"/>
<path d="M1031 1424 c0 -11 3 -14 6 -6 3 7 2 16 -1 19 -3 4 -6 -2 -5 -13z"/>
<path d="M1310 1433 c0 -5 10 -19 21 -33 l20 -25 -16 33 c-15 30 -25 41 -25
25z"/>
<path d="M1478 1430 c6 -8 12 -26 12 -41 0 -29 -13 -44 -45 -52 -19 -4 -18 -5
2 -6 47 -2 73 71 36 100 -15 11 -16 11 -5 -1z"/>
<path d="M2301 1400 l-2 -45 -15 28 c-8 15 -17 27 -20 27 -2 0 6 -19 18 -42
22 -42 23 -42 26 -16 2 15 1 42 -1 60 -3 28 -4 26 -6 -12z"/>
<path d="M2571 1424 c0 -11 3 -14 6 -6 3 7 2 16 -1 19 -3 4 -6 -2 -5 -13z"/>
<path d="M2750 1433 c0 -5 10 -19 21 -33 l20 -25 -16 33 c-15 30 -25 41 -25
25z"/>
<path d="M3510 1430 c0 -5 5 -10 10 -10 6 0 10 5 10 10 0 6 -4 10 -10 10 -5 0
-10 -4 -10 -10z"/>
<path d="M1132 1405 c0 -16 2 -22 5 -12 2 9 2 23 0 30 -3 6 -5 -1 -5 -18z"/>
<path d="M3740 1425 c0 -5 5 -17 10 -25 5 -8 10 -10 10 -5 0 6 -5 17 -10 25
-5 8 -10 11 -10 5z"/>
<path d="M1071 1404 c0 -11 3 -14 6 -6 3 7 2 16 -1 19 -3 4 -6 -2 -5 -13z"/>
<path d="M1811 1390 c-1 -39 13 -60 41 -60 21 0 38 29 37 62 -1 25 -4 19 -13
-25 -5 -22 -12 -28 -29 -25 -17 2 -23 12 -28 43 l-6 40 -2 -35z"/>
<path d="M2472 1400 c0 -14 2 -19 5 -12 2 6 2 18 0 25 -3 6 -5 1 -5 -13z"/>
<path d="M2531 1404 c0 -11 3 -14 6 -6 3 7 2 16 -1 19 -3 4 -6 -2 -5 -13z"/>
<path d="M2689 1385 c-3 -32 -8 -41 -26 -43 -17 -3 -24 3 -29 25 -9 44 -12 50
-13 25 -1 -33 17 -62 38 -62 28 0 43 25 39 62 -4 33 -4 33 -9 -7z"/>
<path d="M3304 1393 c3 -17 -1 -23 -14 -23 -10 0 -21 6 -23 13 -4 7 -6 6 -6
-4 -1 -11 9 -18 29 -21 32 -5 35 3 19 37 -9 19 -9 18 -5 -2z"/>
<path d="M3472 1390 c0 -14 2 -19 5 -12 2 6 2 18 0 25 -3 6 -5 1 -5 -13z"/>
<path d="M3501 1394 c0 -11 3 -14 6 -6 3 7 2 16 -1 19 -3 4 -6 -2 -5 -13z"/>
<path d="M3531 1394 c0 -11 3 -14 6 -6 3 7 2 16 -1 19 -3 4 -6 -2 -5 -13z"/>
<path d="M3562 1390 c0 -14 2 -19 5 -12 2 6 2 18 0 25 -3 6 -5 1 -5 -13z"/>
<path d="M1041 1380 c-1 -35 14 -58 23 -34 3 9 4 19 1 22 -3 3 -6 -1 -6 -9 -1
-8 -5 0 -9 16 -7 28 -8 28 -9 5z"/>
<path d="M2501 1384 c0 -11 3 -14 6 -6 3 7 2 16 -1 19 -3 4 -6 -2 -5 -13z"/>
<path d="M2562 1380 c0 -14 2 -19 5 -12 2 6 2 18 0 25 -3 6 -5 1 -5 -13z"/>
<path d="M1241 1383 c-1 -7 -12 -13 -26 -13 -17 0 -25 -5 -24 -17 0 -11 3 -13
6 -5 8 19 53 15 54 -5 0 -10 3 -13 5 -7 3 6 0 22 -5 35 -5 13 -10 18 -10 12z"/>
<path d="M3767 1383 c-4 -3 -7 -18 -6 -32 1 -26 1 -25 10 3 9 31 7 41 -4 29z"/>
<path d="M3900 1375 c16 -20 2 -38 -26 -32 -13 2 -21 0 -18 -4 8 -14 40 -11
53 5 12 15 5 46 -11 46 -6 0 -5 -6 2 -15z"/>
<path d="M1117 1356 c-4 -10 -5 -21 -2 -24 9 -9 17 6 13 25 -3 17 -4 17 -11
-1z"/>
<path d="M2480 1353 c0 -13 5 -23 10 -23 13 0 13 11 0 30 -8 12 -10 11 -10 -7z"/>
<path d="M2540 1358 c0 -9 5 -20 10 -23 13 -8 13 5 0 25 -8 13 -10 13 -10 -2z"/>
<path d="M3487 1353 c-4 -3 -7 -11 -7 -17 0 -6 5 -5 12 2 6 6 9 14 7 17 -3 3
-9 2 -12 -2z"/>
<path d="M3540 1346 c0 -9 5 -16 10 -16 6 0 10 4 10 9 0 6 -4 13 -10 16 -5 3
-10 -1 -10 -9z"/>
<path d="M1563 1333 c9 -2 25 -2 35 0 9 3 1 5 -18 5 -19 0 -27 -2 -17 -5z"/>
<path d="M3003 1333 c9 -2 25 -2 35 0 9 3 1 5 -18 5 -19 0 -27 -2 -17 -5z"/>
</g>
</svg>
