<?xml version="1.0" standalone="no"?>
<!DOCTYPE svg PUBLIC "-//W3C//DTD SVG 20010904//EN"
 "http://www.w3.org/TR/2001/REC-SVG-20010904/DTD/svg10.dtd">
<svg version="1.0" xmlns="http://www.w3.org/2000/svg"
 width="500.000000pt" height="500.000000pt" viewBox="0 0 500.000000 500.000000"
 preserveAspectRatio="xMidYMid meet">

<g transform="translate(0.000000,500.000000) scale(0.100000,-0.100000)"
fill="#000000" stroke="none">
<path d="M2443 2422 c-51 -39 -50 -132 0 -167 35 -24 104 -19 132 9 68 68 27
176 -67 176 -25 0 -52 -8 -65 -18z m75 -32 c2 -21 -2 -30 -12 -30 -11 0 -15 9
-13 30 3 39 22 39 25 0z m-54 -26 c9 -3 16 -16 16 -28 0 -17 6 -22 25 -22 20
0 25 5 25 26 0 20 5 26 25 28 30 2 33 -14 5 -23 -22 -7 -27 -34 -9 -52 7 -7 7
-13 1 -17 -5 -3 -15 1 -22 9 -7 8 -18 15 -25 15 -7 0 -18 -7 -25 -15 -7 -8
-17 -12 -22 -9 -6 4 -6 10 1 17 18 18 13 48 -9 54 -11 3 -20 9 -20 14 0 10 12
11 34 3z"/>
<path d="M1936 2349 c-58 -69 -14 -169 76 -169 58 0 98 42 98 105 0 65 -31 95
-99 95 -43 0 -53 -4 -75 -31z m86 -14 c4 -19 1 -25 -13 -25 -14 0 -19 -7 -19
-25 0 -21 5 -25 28 -25 16 0 32 -8 40 -20 16 -26 -3 -27 -31 -3 -18 17 -20 17
-37 -5 -19 -24 -35 -17 -19 8 15 25 10 40 -18 52 l-28 11 35 6 c27 5 36 11 38
29 4 30 19 28 24 -3z m48 -45 c-31 -24 -42 -25 -38 -3 2 9 14 20 28 23 35 9
39 2 10 -20z"/>
</g>
</svg>
